<svg xmlns="http://www.w3.org/2000/svg" xmlns:xlink="http://www.w3.org/1999/xlink" contentStyleType="text/css" data-diagram-type="CLASS" height="386px" preserveAspectRatio="none" style="width:3721px;height:386px;background:#FFFFFF;" version="1.1" viewBox="0 0 3721 386" width="3721px" zoomAndPan="magnify"><defs/><g><!--class BaseTraj--><g class="entity" data-entity="BaseTraj" data-source-line="5" data-uid="ent0002" id="entity_BaseTraj"><rect fill="#F1F1F1" height="48" rx="2.5" ry="2.5" style="stroke:#181818;stroke-width:0.5;" width="92.8672" x="1924.13" y="7"/><ellipse cx="1939.13" cy="23" fill="#A9DCDF" rx="11" ry="11" style="stroke:#181818;stroke-width:1;"/><path d="M1939.2394,18.3438 L1938.0831,23.4219 L1940.4113,23.4219 L1939.2394,18.3438 Z M1937.755,16.1094 L1940.7394,16.1094 L1944.0988,28.5 L1941.6456,28.5 L1940.88,25.4375 L1937.5988,25.4375 L1936.8488,28.5 L1934.4113,28.5 L1937.755,16.1094 Z " fill="#000000"/><text fill="#000000" font-family="sans-serif" font-size="14" font-style="italic" lengthAdjust="spacing" textLength="60.8672" x="1953.13" y="27.8467">BaseTraj</text><line style="stroke:#181818;stroke-width:0.5;" x1="1925.13" x2="2015.9972" y1="39" y2="39"/><line style="stroke:#181818;stroke-width:0.5;" x1="1925.13" x2="2015.9972" y1="47" y2="47"/></g><!--class BaseTrajwFixedRotor--><g class="entity" data-entity="BaseTrajwFixedRotor" data-source-line="14" data-uid="ent0003" id="entity_BaseTrajwFixedRotor"><rect fill="#F1F1F1" height="48" rx="2.5" ry="2.5" style="stroke:#181818;stroke-width:0.5;" width="180.1484" x="446.49" y="115"/><ellipse cx="461.49" cy="131" fill="#A9DCDF" rx="11" ry="11" style="stroke:#181818;stroke-width:1;"/><path d="M461.5994,126.3438 L460.4431,131.4219 L462.7713,131.4219 L461.5994,126.3438 Z M460.115,124.1094 L463.0994,124.1094 L466.4588,136.5 L464.0056,136.5 L463.24,133.4375 L459.9588,133.4375 L459.2088,136.5 L456.7713,136.5 L460.115,124.1094 Z " fill="#000000"/><text fill="#000000" font-family="sans-serif" font-size="14" font-style="italic" lengthAdjust="spacing" textLength="148.1484" x="475.49" y="135.8467">BaseTrajwFixedRotor</text><line style="stroke:#181818;stroke-width:0.5;" x1="447.49" x2="625.6384" y1="147" y2="147"/><line style="stroke:#181818;stroke-width:0.5;" x1="447.49" x2="625.6384" y1="155" y2="155"/></g><!--class BaseTrajwSound--><g class="entity" data-entity="BaseTrajwSound" data-source-line="22" data-uid="ent0005" id="entity_BaseTrajwSound"><rect fill="#F1F1F1" height="48" rx="2.5" ry="2.5" style="stroke:#181818;stroke-width:0.5;" width="148.4023" x="181.37" y="223"/><ellipse cx="196.37" cy="239" fill="#A9DCDF" rx="11" ry="11" style="stroke:#181818;stroke-width:1;"/><path d="M196.4794,234.3438 L195.3231,239.4219 L197.6513,239.4219 L196.4794,234.3438 Z M194.995,232.1094 L197.9794,232.1094 L201.3388,244.5 L198.8856,244.5 L198.12,241.4375 L194.8388,241.4375 L194.0888,244.5 L191.6513,244.5 L194.995,232.1094 Z " fill="#000000"/><text fill="#000000" font-family="sans-serif" font-size="14" font-style="italic" lengthAdjust="spacing" textLength="116.4023" x="210.37" y="243.8467">BaseTrajwSound</text><line style="stroke:#181818;stroke-width:0.5;" x1="182.37" x2="328.7723" y1="255" y2="255"/><line style="stroke:#181818;stroke-width:0.5;" x1="182.37" x2="328.7723" y1="263" y2="263"/></g><!--class CircleTraj--><g class="entity" data-entity="CircleTraj" data-source-line="30" data-uid="ent0007" id="entity_CircleTraj"><rect fill="#F1F1F1" height="48" rx="2.5" ry="2.5" style="stroke:#181818;stroke-width:0.5;" width="98.3975" x="665.37" y="115"/><ellipse cx="680.37" cy="131" fill="#A9DCDF" rx="11" ry="11" style="stroke:#181818;stroke-width:1;"/><path d="M680.4794,126.3438 L679.3231,131.4219 L681.6513,131.4219 L680.4794,126.3438 Z M678.995,124.1094 L681.9794,124.1094 L685.3388,136.5 L682.8856,136.5 L682.12,133.4375 L678.8388,133.4375 L678.0888,136.5 L675.6513,136.5 L678.995,124.1094 Z " fill="#000000"/><text fill="#000000" font-family="sans-serif" font-size="14" font-style="italic" lengthAdjust="spacing" textLength="66.3975" x="694.37" y="135.8467">CircleTraj</text><line style="stroke:#181818;stroke-width:0.5;" x1="666.37" x2="762.7675" y1="147" y2="147"/><line style="stroke:#181818;stroke-width:0.5;" x1="666.37" x2="762.7675" y1="155" y2="155"/></g><!--class LemniscateTraj--><g class="entity" data-entity="LemniscateTraj" data-source-line="38" data-uid="ent0009" id="entity_LemniscateTraj"><rect fill="#F1F1F1" height="48" rx="2.5" ry="2.5" style="stroke:#181818;stroke-width:0.5;" width="139.2627" x="798.94" y="115"/><ellipse cx="813.94" cy="131" fill="#A9DCDF" rx="11" ry="11" style="stroke:#181818;stroke-width:1;"/><path d="M814.0494,126.3438 L812.8931,131.4219 L815.2213,131.4219 L814.0494,126.3438 Z M812.565,124.1094 L815.5494,124.1094 L818.9088,136.5 L816.4556,136.5 L815.69,133.4375 L812.4088,133.4375 L811.6588,136.5 L809.2213,136.5 L812.565,124.1094 Z " fill="#000000"/><text fill="#000000" font-family="sans-serif" font-size="14" font-style="italic" lengthAdjust="spacing" textLength="107.2627" x="827.94" y="135.8467">LemniscateTraj</text><line style="stroke:#181818;stroke-width:0.5;" x1="799.94" x2="937.2027" y1="147" y2="147"/><line style="stroke:#181818;stroke-width:0.5;" x1="799.94" x2="937.2027" y1="155" y2="155"/></g><!--class LemniscateTrajOmni--><g class="entity" data-entity="LemniscateTrajOmni" data-source-line="46" data-uid="ent0011" id="entity_LemniscateTrajOmni"><rect fill="#F1F1F1" height="48" rx="2.5" ry="2.5" style="stroke:#181818;stroke-width:0.5;" width="176.6826" x="831.23" y="223"/><ellipse cx="846.23" cy="239" fill="#A9DCDF" rx="11" ry="11" style="stroke:#181818;stroke-width:1;"/><path d="M846.3394,234.3438 L845.1831,239.4219 L847.5113,239.4219 L846.3394,234.3438 Z M844.855,232.1094 L847.8394,232.1094 L851.1988,244.5 L848.7456,244.5 L847.98,241.4375 L844.6988,241.4375 L843.9488,244.5 L841.5113,244.5 L844.855,232.1094 Z " fill="#000000"/><text fill="#000000" font-family="sans-serif" font-size="14" font-style="italic" lengthAdjust="spacing" textLength="144.6826" x="860.23" y="243.8467">LemniscateTrajOmni</text><line style="stroke:#181818;stroke-width:0.5;" x1="832.23" x2="1006.9126" y1="255" y2="255"/><line style="stroke:#181818;stroke-width:0.5;" x1="832.23" x2="1006.9126" y1="263" y2="263"/></g><!--class SetPointTraj--><g class="entity" data-entity="SetPointTraj" data-source-line="54" data-uid="ent0013" id="entity_SetPointTraj"><rect fill="#F1F1F1" height="48" rx="2.5" ry="2.5" style="stroke:#181818;stroke-width:0.5;" width="117.0254" x="973.06" y="115"/><ellipse cx="988.06" cy="131" fill="#A9DCDF" rx="11" ry="11" style="stroke:#181818;stroke-width:1;"/><path d="M988.1694,126.3438 L987.0131,131.4219 L989.3413,131.4219 L988.1694,126.3438 Z M986.685,124.1094 L989.6694,124.1094 L993.0288,136.5 L990.5756,136.5 L989.81,133.4375 L986.5288,133.4375 L985.7788,136.5 L983.3413,136.5 L986.685,124.1094 Z " fill="#000000"/><text fill="#000000" font-family="sans-serif" font-size="14" font-style="italic" lengthAdjust="spacing" textLength="85.0254" x="1002.06" y="135.8467">SetPointTraj</text><line style="stroke:#181818;stroke-width:0.5;" x1="974.06" x2="1089.0854" y1="147" y2="147"/><line style="stroke:#181818;stroke-width:0.5;" x1="974.06" x2="1089.0854" y1="155" y2="155"/></g><!--class PitchRotationTraj--><g class="entity" data-entity="PitchRotationTraj" data-source-line="62" data-uid="ent0015" id="entity_PitchRotationTraj"><rect fill="#F1F1F1" height="48" rx="2.5" ry="2.5" style="stroke:#181818;stroke-width:0.5;" width="152.3467" x="1125.39" y="115"/><ellipse cx="1140.39" cy="131" fill="#A9DCDF" rx="11" ry="11" style="stroke:#181818;stroke-width:1;"/><path d="M1140.4994,126.3438 L1139.3431,131.4219 L1141.6713,131.4219 L1140.4994,126.3438 Z M1139.015,124.1094 L1141.9994,124.1094 L1145.3588,136.5 L1142.9056,136.5 L1142.14,133.4375 L1138.8588,133.4375 L1138.1088,136.5 L1135.6713,136.5 L1139.015,124.1094 Z " fill="#000000"/><text fill="#000000" font-family="sans-serif" font-size="14" font-style="italic" lengthAdjust="spacing" textLength="120.3467" x="1154.39" y="135.8467">PitchRotationTraj</text><line style="stroke:#181818;stroke-width:0.5;" x1="1126.39" x2="1276.7367" y1="147" y2="147"/><line style="stroke:#181818;stroke-width:0.5;" x1="1126.39" x2="1276.7367" y1="155" y2="155"/></g><!--class PitchRotationFullTraj--><g class="entity" data-entity="PitchRotationFullTraj" data-source-line="70" data-uid="ent0017" id="entity_PitchRotationFullTraj"><rect fill="#F1F1F1" height="48" rx="2.5" ry="2.5" style="stroke:#181818;stroke-width:0.5;" width="177.0518" x="1313.04" y="115"/><ellipse cx="1328.04" cy="131" fill="#A9DCDF" rx="11" ry="11" style="stroke:#181818;stroke-width:1;"/><path d="M1328.1494,126.3438 L1326.9931,131.4219 L1329.3213,131.4219 L1328.1494,126.3438 Z M1326.665,124.1094 L1329.6494,124.1094 L1333.0088,136.5 L1330.5556,136.5 L1329.79,133.4375 L1326.5088,133.4375 L1325.7588,136.5 L1323.3213,136.5 L1326.665,124.1094 Z " fill="#000000"/><text fill="#000000" font-family="sans-serif" font-size="14" font-style="italic" lengthAdjust="spacing" textLength="145.0518" x="1342.04" y="135.8467">PitchRotationFullTraj</text><line style="stroke:#181818;stroke-width:0.5;" x1="1314.04" x2="1489.0918" y1="147" y2="147"/><line style="stroke:#181818;stroke-width:0.5;" x1="1314.04" x2="1489.0918" y1="155" y2="155"/></g><!--class PitchContinuousRotationTraj--><g class="entity" data-entity="PitchContinuousRotationTraj" data-source-line="78" data-uid="ent0019" id="entity_PitchContinuousRotationTraj"><rect fill="#F1F1F1" height="48" rx="2.5" ry="2.5" style="stroke:#181818;stroke-width:0.5;" width="231.418" x="364.86" y="223"/><ellipse cx="379.86" cy="239" fill="#A9DCDF" rx="11" ry="11" style="stroke:#181818;stroke-width:1;"/><path d="M379.9694,234.3438 L378.8131,239.4219 L381.1413,239.4219 L379.9694,234.3438 Z M378.485,232.1094 L381.4694,232.1094 L384.8288,244.5 L382.3756,244.5 L381.61,241.4375 L378.3288,241.4375 L377.5788,244.5 L375.1413,244.5 L378.485,232.1094 Z " fill="#000000"/><text fill="#000000" font-family="sans-serif" font-size="14" font-style="italic" lengthAdjust="spacing" textLength="199.418" x="393.86" y="243.8467">PitchContinuousRotationTraj</text><line style="stroke:#181818;stroke-width:0.5;" x1="365.86" x2="595.278" y1="255" y2="255"/><line style="stroke:#181818;stroke-width:0.5;" x1="365.86" x2="595.278" y1="263" y2="263"/></g><!--class PitchRotationTrajOpposite--><g class="entity" data-entity="PitchRotationTrajOpposite" data-source-line="86" data-uid="ent0021" id="entity_PitchRotationTrajOpposite"><rect fill="#F1F1F1" height="48" rx="2.5" ry="2.5" style="stroke:#181818;stroke-width:0.5;" width="214.9912" x="1094.07" y="223"/><ellipse cx="1109.07" cy="239" fill="#A9DCDF" rx="11" ry="11" style="stroke:#181818;stroke-width:1;"/><path d="M1109.1794,234.3438 L1108.0231,239.4219 L1110.3513,239.4219 L1109.1794,234.3438 Z M1107.695,232.1094 L1110.6794,232.1094 L1114.0388,244.5 L1111.5856,244.5 L1110.82,241.4375 L1107.5388,241.4375 L1106.7888,244.5 L1104.3513,244.5 L1107.695,232.1094 Z " fill="#000000"/><text fill="#000000" font-family="sans-serif" font-size="14" font-style="italic" lengthAdjust="spacing" textLength="182.9912" x="1123.07" y="243.8467">PitchRotationTrajOpposite</text><line style="stroke:#181818;stroke-width:0.5;" x1="1095.07" x2="1308.0612" y1="255" y2="255"/><line style="stroke:#181818;stroke-width:0.5;" x1="1095.07" x2="1308.0612" y1="263" y2="263"/></g><!--class Continuous45DegRotationTraj--><g class="entity" data-entity="Continuous45DegRotationTraj" data-source-line="94" data-uid="ent0023" id="entity_Continuous45DegRotationTraj"><rect fill="#F1F1F1" height="48" rx="2.5" ry="2.5" style="stroke:#181818;stroke-width:0.5;" width="243.1211" x="1525.01" y="115"/><ellipse cx="1540.01" cy="131" fill="#A9DCDF" rx="11" ry="11" style="stroke:#181818;stroke-width:1;"/><path d="M1540.1194,126.3438 L1538.9631,131.4219 L1541.2913,131.4219 L1540.1194,126.3438 Z M1538.635,124.1094 L1541.6194,124.1094 L1544.9788,136.5 L1542.5256,136.5 L1541.76,133.4375 L1538.4788,133.4375 L1537.7288,136.5 L1535.2913,136.5 L1538.635,124.1094 Z " fill="#000000"/><text fill="#000000" font-family="sans-serif" font-size="14" font-style="italic" lengthAdjust="spacing" textLength="211.1211" x="1554.01" y="135.8467">Continuous45DegRotationTraj</text><line style="stroke:#181818;stroke-width:0.5;" x1="1526.01" x2="1767.1311" y1="147" y2="147"/><line style="stroke:#181818;stroke-width:0.5;" x1="1526.01" x2="1767.1311" y1="155" y2="155"/></g><!--class RollRotationTraj--><g class="entity" data-entity="RollRotationTraj" data-source-line="102" data-uid="ent0025" id="entity_RollRotationTraj"><rect fill="#F1F1F1" height="48" rx="2.5" ry="2.5" style="stroke:#181818;stroke-width:0.5;" width="144.0273" x="1803.55" y="115"/><ellipse cx="1818.55" cy="131" fill="#A9DCDF" rx="11" ry="11" style="stroke:#181818;stroke-width:1;"/><path d="M1818.6594,126.3438 L1817.5031,131.4219 L1819.8313,131.4219 L1818.6594,126.3438 Z M1817.175,124.1094 L1820.1594,124.1094 L1823.5188,136.5 L1821.0656,136.5 L1820.3,133.4375 L1817.0188,133.4375 L1816.2688,136.5 L1813.8313,136.5 L1817.175,124.1094 Z " fill="#000000"/><text fill="#000000" font-family="sans-serif" font-size="14" font-style="italic" lengthAdjust="spacing" textLength="112.0273" x="1832.55" y="135.8467">RollRotationTraj</text><line style="stroke:#181818;stroke-width:0.5;" x1="1804.55" x2="1946.5773" y1="147" y2="147"/><line style="stroke:#181818;stroke-width:0.5;" x1="1804.55" x2="1946.5773" y1="155" y2="155"/></g><!--class RollRotationFullTraj--><g class="entity" data-entity="RollRotationFullTraj" data-source-line="110" data-uid="ent0027" id="entity_RollRotationFullTraj"><rect fill="#F1F1F1" height="48" rx="2.5" ry="2.5" style="stroke:#181818;stroke-width:0.5;" width="168.7324" x="1982.2" y="115"/><ellipse cx="1997.2" cy="131" fill="#A9DCDF" rx="11" ry="11" style="stroke:#181818;stroke-width:1;"/><path d="M1997.3094,126.3438 L1996.1531,131.4219 L1998.4813,131.4219 L1997.3094,126.3438 Z M1995.825,124.1094 L1998.8094,124.1094 L2002.1688,136.5 L1999.7156,136.5 L1998.95,133.4375 L1995.6688,133.4375 L1994.9188,136.5 L1992.4813,136.5 L1995.825,124.1094 Z " fill="#000000"/><text fill="#000000" font-family="sans-serif" font-size="14" font-style="italic" lengthAdjust="spacing" textLength="136.7324" x="2011.2" y="135.8467">RollRotationFullTraj</text><line style="stroke:#181818;stroke-width:0.5;" x1="1983.2" x2="2149.9324" y1="147" y2="147"/><line style="stroke:#181818;stroke-width:0.5;" x1="1983.2" x2="2149.9324" y1="155" y2="155"/></g><!--class RollRotationTrajOpposite--><g class="entity" data-entity="RollRotationTrajOpposite" data-source-line="118" data-uid="ent0029" id="entity_RollRotationTrajOpposite"><rect fill="#F1F1F1" height="48" rx="2.5" ry="2.5" style="stroke:#181818;stroke-width:0.5;" width="206.6719" x="1772.23" y="223"/><ellipse cx="1787.23" cy="239" fill="#A9DCDF" rx="11" ry="11" style="stroke:#181818;stroke-width:1;"/><path d="M1787.3394,234.3438 L1786.1831,239.4219 L1788.5113,239.4219 L1787.3394,234.3438 Z M1785.855,232.1094 L1788.8394,232.1094 L1792.1988,244.5 L1789.7456,244.5 L1788.98,241.4375 L1785.6988,241.4375 L1784.9488,244.5 L1782.5113,244.5 L1785.855,232.1094 Z " fill="#000000"/><text fill="#000000" font-family="sans-serif" font-size="14" font-style="italic" lengthAdjust="spacing" textLength="174.6719" x="1801.23" y="243.8467">RollRotationTrajOpposite</text><line style="stroke:#181818;stroke-width:0.5;" x1="1773.23" x2="1977.9019" y1="255" y2="255"/><line style="stroke:#181818;stroke-width:0.5;" x1="1773.23" x2="1977.9019" y1="263" y2="263"/></g><!--class RollRotationYaw045dTraj--><g class="entity" data-entity="RollRotationYaw045dTraj" data-source-line="126" data-uid="ent0031" id="entity_RollRotationYaw045dTraj"><rect fill="#F1F1F1" height="48" rx="2.5" ry="2.5" style="stroke:#181818;stroke-width:0.5;" width="208.2168" x="2185.46" y="115"/><ellipse cx="2200.46" cy="131" fill="#A9DCDF" rx="11" ry="11" style="stroke:#181818;stroke-width:1;"/><path d="M2200.5694,126.3438 L2199.4131,131.4219 L2201.7413,131.4219 L2200.5694,126.3438 Z M2199.085,124.1094 L2202.0694,124.1094 L2205.4288,136.5 L2202.9756,136.5 L2202.21,133.4375 L2198.9288,133.4375 L2198.1788,136.5 L2195.7413,136.5 L2199.085,124.1094 Z " fill="#000000"/><text fill="#000000" font-family="sans-serif" font-size="14" font-style="italic" lengthAdjust="spacing" textLength="176.2168" x="2214.46" y="135.8467">RollRotationYaw045dTraj</text><line style="stroke:#181818;stroke-width:0.5;" x1="2186.46" x2="2392.6768" y1="147" y2="147"/><line style="stroke:#181818;stroke-width:0.5;" x1="2186.46" x2="2392.6768" y1="155" y2="155"/></g><!--class PitchSetPtTraj--><g class="entity" data-entity="PitchSetPtTraj" data-source-line="134" data-uid="ent0033" id="entity_PitchSetPtTraj"><rect fill="#F1F1F1" height="48" rx="2.5" ry="2.5" style="stroke:#181818;stroke-width:0.5;" width="130.0889" x="2428.52" y="115"/><ellipse cx="2443.52" cy="131" fill="#A9DCDF" rx="11" ry="11" style="stroke:#181818;stroke-width:1;"/><path d="M2443.6294,126.3438 L2442.4731,131.4219 L2444.8013,131.4219 L2443.6294,126.3438 Z M2442.145,124.1094 L2445.1294,124.1094 L2448.4888,136.5 L2446.0356,136.5 L2445.27,133.4375 L2441.9888,133.4375 L2441.2388,136.5 L2438.8013,136.5 L2442.145,124.1094 Z " fill="#000000"/><text fill="#000000" font-family="sans-serif" font-size="14" font-style="italic" lengthAdjust="spacing" textLength="98.0889" x="2457.52" y="135.8467">PitchSetPtTraj</text><line style="stroke:#181818;stroke-width:0.5;" x1="2429.52" x2="2557.6089" y1="147" y2="147"/><line style="stroke:#181818;stroke-width:0.5;" x1="2429.52" x2="2557.6089" y1="155" y2="155"/></g><!--class YawRotationRoll090dTraj--><g class="entity" data-entity="YawRotationRoll090dTraj" data-source-line="142" data-uid="ent0035" id="entity_YawRotationRoll090dTraj"><rect fill="#F1F1F1" height="48" rx="2.5" ry="2.5" style="stroke:#181818;stroke-width:0.5;" width="208.2168" x="2593.46" y="115"/><ellipse cx="2608.46" cy="131" fill="#A9DCDF" rx="11" ry="11" style="stroke:#181818;stroke-width:1;"/><path d="M2608.5694,126.3438 L2607.4131,131.4219 L2609.7413,131.4219 L2608.5694,126.3438 Z M2607.085,124.1094 L2610.0694,124.1094 L2613.4288,136.5 L2610.9756,136.5 L2610.21,133.4375 L2606.9288,133.4375 L2606.1788,136.5 L2603.7413,136.5 L2607.085,124.1094 Z " fill="#000000"/><text fill="#000000" font-family="sans-serif" font-size="14" font-style="italic" lengthAdjust="spacing" textLength="176.2168" x="2622.46" y="135.8467">YawRotationRoll090dTraj</text><line style="stroke:#181818;stroke-width:0.5;" x1="2594.46" x2="2800.6768" y1="147" y2="147"/><line style="stroke:#181818;stroke-width:0.5;" x1="2594.46" x2="2800.6768" y1="155" y2="155"/></g><!--class YawRotationRoll045dTraj--><g class="entity" data-entity="YawRotationRoll045dTraj" data-source-line="150" data-uid="ent0037" id="entity_YawRotationRoll045dTraj"><rect fill="#F1F1F1" height="48" rx="2.5" ry="2.5" style="stroke:#181818;stroke-width:0.5;" width="208.2168" x="2836.46" y="115"/><ellipse cx="2851.46" cy="131" fill="#A9DCDF" rx="11" ry="11" style="stroke:#181818;stroke-width:1;"/><path d="M2851.5694,126.3438 L2850.4131,131.4219 L2852.7413,131.4219 L2851.5694,126.3438 Z M2850.085,124.1094 L2853.0694,124.1094 L2856.4288,136.5 L2853.9756,136.5 L2853.21,133.4375 L2849.9288,133.4375 L2849.1788,136.5 L2846.7413,136.5 L2850.085,124.1094 Z " fill="#000000"/><text fill="#000000" font-family="sans-serif" font-size="14" font-style="italic" lengthAdjust="spacing" textLength="176.2168" x="2865.46" y="135.8467">YawRotationRoll045dTraj</text><line style="stroke:#181818;stroke-width:0.5;" x1="2837.46" x2="3043.6768" y1="147" y2="147"/><line style="stroke:#181818;stroke-width:0.5;" x1="2837.46" x2="3043.6768" y1="155" y2="155"/></g><!--class YawRotationRoll135dTraj--><g class="entity" data-entity="YawRotationRoll135dTraj" data-source-line="158" data-uid="ent0039" id="entity_YawRotationRoll135dTraj"><rect fill="#F1F1F1" height="48" rx="2.5" ry="2.5" style="stroke:#181818;stroke-width:0.5;" width="208.2168" x="3079.46" y="115"/><ellipse cx="3094.46" cy="131" fill="#A9DCDF" rx="11" ry="11" style="stroke:#181818;stroke-width:1;"/><path d="M3094.5694,126.3438 L3093.4131,131.4219 L3095.7413,131.4219 L3094.5694,126.3438 Z M3093.085,124.1094 L3096.0694,124.1094 L3099.4288,136.5 L3096.9756,136.5 L3096.21,133.4375 L3092.9288,133.4375 L3092.1788,136.5 L3089.7413,136.5 L3093.085,124.1094 Z " fill="#000000"/><text fill="#000000" font-family="sans-serif" font-size="14" font-style="italic" lengthAdjust="spacing" textLength="176.2168" x="3108.46" y="135.8467">YawRotationRoll135dTraj</text><line style="stroke:#181818;stroke-width:0.5;" x1="3080.46" x2="3286.6768" y1="147" y2="147"/><line style="stroke:#181818;stroke-width:0.5;" x1="3080.46" x2="3286.6768" y1="155" y2="155"/></g><!--class SingularityPointTraj--><g class="entity" data-entity="SingularityPointTraj" data-source-line="166" data-uid="ent0041" id="entity_SingularityPointTraj"><rect fill="#F1F1F1" height="48" rx="2.5" ry="2.5" style="stroke:#181818;stroke-width:0.5;" width="169.334" x="3322.9" y="115"/><ellipse cx="3337.9" cy="131" fill="#A9DCDF" rx="11" ry="11" style="stroke:#181818;stroke-width:1;"/><path d="M3338.0094,126.3438 L3336.8531,131.4219 L3339.1813,131.4219 L3338.0094,126.3438 Z M3336.525,124.1094 L3339.5094,124.1094 L3342.8688,136.5 L3340.4156,136.5 L3339.65,133.4375 L3336.3688,133.4375 L3335.6188,136.5 L3333.1813,136.5 L3336.525,124.1094 Z " fill="#000000"/><text fill="#000000" font-family="sans-serif" font-size="14" font-style="italic" lengthAdjust="spacing" textLength="137.334" x="3351.9" y="135.8467">SingularityPointTraj</text><line style="stroke:#181818;stroke-width:0.5;" x1="3323.9" x2="3491.234" y1="147" y2="147"/><line style="stroke:#181818;stroke-width:0.5;" x1="3323.9" x2="3491.234" y1="155" y2="155"/></g><!--class TestFixedRotorTraj--><g class="entity" data-entity="TestFixedRotorTraj" data-source-line="174" data-uid="ent0043" id="entity_TestFixedRotorTraj"><rect fill="#F1F1F1" height="48" rx="2.5" ry="2.5" style="stroke:#181818;stroke-width:0.5;" width="164.5557" x="631.29" y="223"/><ellipse cx="646.29" cy="239" fill="#A9DCDF" rx="11" ry="11" style="stroke:#181818;stroke-width:1;"/><path d="M646.3994,234.3438 L645.2431,239.4219 L647.5713,239.4219 L646.3994,234.3438 Z M644.915,232.1094 L647.8994,232.1094 L651.2588,244.5 L648.8056,244.5 L648.04,241.4375 L644.7588,241.4375 L644.0088,244.5 L641.5713,244.5 L644.915,232.1094 Z " fill="#000000"/><text fill="#000000" font-family="sans-serif" font-size="14" font-style="italic" lengthAdjust="spacing" textLength="132.5557" x="660.29" y="243.8467">TestFixedRotorTraj</text><line style="stroke:#181818;stroke-width:0.5;" x1="632.29" x2="794.8457" y1="255" y2="255"/><line style="stroke:#181818;stroke-width:0.5;" x1="632.29" x2="794.8457" y1="263" y2="263"/></g><!--class HappyBirthdayFixedRotorTraj--><g class="entity" data-entity="HappyBirthdayFixedRotorTraj" data-source-line="182" data-uid="ent0045" id="entity_HappyBirthdayFixedRotorTraj"><rect fill="#F1F1F1" height="48" rx="2.5" ry="2.5" style="stroke:#181818;stroke-width:0.5;" width="239.1357" x="7" y="331"/><ellipse cx="22" cy="347" fill="#A9DCDF" rx="11" ry="11" style="stroke:#181818;stroke-width:1;"/><path d="M22.1094,342.3438 L20.9531,347.4219 L23.2813,347.4219 L22.1094,342.3438 Z M20.625,340.1094 L23.6094,340.1094 L26.9688,352.5 L24.5156,352.5 L23.75,349.4375 L20.4688,349.4375 L19.7188,352.5 L17.2813,352.5 L20.625,340.1094 Z " fill="#000000"/><text fill="#000000" font-family="sans-serif" font-size="14" font-style="italic" lengthAdjust="spacing" textLength="207.1357" x="36" y="351.8467">HappyBirthdayFixedRotorTraj</text><line style="stroke:#181818;stroke-width:0.5;" x1="8" x2="245.1357" y1="363" y2="363"/><line style="stroke:#181818;stroke-width:0.5;" x1="8" x2="245.1357" y1="371" y2="371"/></g><!--class TestThrustFrequencyTraj--><g class="entity" data-entity="TestThrustFrequencyTraj" data-source-line="190" data-uid="ent0047" id="entity_TestThrustFrequencyTraj"><rect fill="#F1F1F1" height="48" rx="2.5" ry="2.5" style="stroke:#181818;stroke-width:0.5;" width="207.2119" x="280.96" y="331"/><ellipse cx="295.96" cy="347" fill="#A9DCDF" rx="11" ry="11" style="stroke:#181818;stroke-width:1;"/><path d="M296.0694,342.3438 L294.9131,347.4219 L297.2413,347.4219 L296.0694,342.3438 Z M294.585,340.1094 L297.5694,340.1094 L300.9288,352.5 L298.4756,352.5 L297.71,349.4375 L294.4288,349.4375 L293.6788,352.5 L291.2413,352.5 L294.585,340.1094 Z " fill="#000000"/><text fill="#000000" font-family="sans-serif" font-size="14" font-style="italic" lengthAdjust="spacing" textLength="175.2119" x="309.96" y="351.8467">TestThrustFrequencyTraj</text><line style="stroke:#181818;stroke-width:0.5;" x1="281.96" x2="487.1719" y1="363" y2="363"/><line style="stroke:#181818;stroke-width:0.5;" x1="281.96" x2="487.1719" y1="371" y2="371"/></g><!--class InfinitePitchNeg90deg--><g class="entity" data-entity="InfinitePitchNeg90deg" data-source-line="198" data-uid="ent0049" id="entity_InfinitePitchNeg90deg"><rect fill="#F1F1F1" height="48" rx="2.5" ry="2.5" style="stroke:#181818;stroke-width:0.5;" width="187.251" x="3526.94" y="115"/><ellipse cx="3541.94" cy="131" fill="#A9DCDF" rx="11" ry="11" style="stroke:#181818;stroke-width:1;"/><path d="M3542.0494,126.3438 L3540.8931,131.4219 L3543.2213,131.4219 L3542.0494,126.3438 Z M3540.565,124.1094 L3543.5494,124.1094 L3546.9088,136.5 L3544.4556,136.5 L3543.69,133.4375 L3540.4088,133.4375 L3539.6588,136.5 L3537.2213,136.5 L3540.565,124.1094 Z " fill="#000000"/><text fill="#000000" font-family="sans-serif" font-size="14" font-style="italic" lengthAdjust="spacing" textLength="155.251" x="3555.94" y="135.8467">InfinitePitchNeg90deg</text><line style="stroke:#181818;stroke-width:0.5;" x1="3527.94" x2="3713.191" y1="147" y2="147"/><line style="stroke:#181818;stroke-width:0.5;" x1="3527.94" x2="3713.191" y1="155" y2="155"/></g><!--reverse link BaseTraj to BaseTrajwFixedRotor--><g class="link" data-entity-1="BaseTraj" data-entity-2="BaseTrajwFixedRotor" data-uid="lnk4" id="link_BaseTraj_BaseTrajwFixedRotor"><path d="M1905.7619,32.8016 C1734.4719,35.2916 1143.95,48.34 647.57,115 C640.84,115.9 633.91,116.98 626.95,118.17" fill="none" id="BaseTraj-backto-BaseTrajwFixedRotor" style="stroke:#181818;stroke-width:1;"/><polygon fill="none" points="1923.76,32.54,1905.6747,26.8023,1905.8491,38.801,1923.76,32.54" style="stroke:#181818;stroke-width:1;"/></g><!--reverse link BaseTrajwFixedRotor to BaseTrajwSound--><g class="link" data-entity-1="BaseTrajwFixedRotor" data-entity-2="BaseTrajwSound" data-uid="lnk6" id="link_BaseTrajwFixedRotor_BaseTrajwSound"><path d="M457.7084,169.743 C410.9984,187.363 364.09,205.06 317.42,222.67" fill="none" id="BaseTrajwFixedRotor-backto-BaseTrajwSound" style="stroke:#181818;stroke-width:1;"/><polygon fill="none" points="474.55,163.39,455.5907,164.1291,459.8261,175.3569,474.55,163.39" style="stroke:#181818;stroke-width:1;"/></g><!--reverse link BaseTraj to CircleTraj--><g class="link" data-entity-1="BaseTraj" data-entity-2="CircleTraj" data-uid="lnk8" id="link_BaseTraj_CircleTraj"><path d="M1905.8518,34.2824 C1714.2318,41.2324 1006.16,69.43 781.57,115 C775.78,116.17 769.81,117.72 763.93,119.45" fill="none" id="BaseTraj-backto-CircleTraj" style="stroke:#181818;stroke-width:1;"/><polygon fill="none" points="1923.84,33.63,1905.6344,28.2864,1906.0693,40.2785,1923.84,33.63" style="stroke:#181818;stroke-width:1;"/></g><!--reverse link BaseTraj to LemniscateTraj--><g class="link" data-entity-1="BaseTraj" data-entity-2="LemniscateTraj" data-uid="lnk10" id="link_BaseTraj_LemniscateTraj"><path d="M1905.6649,33.3106 C1760.6349,36.7006 1324.99,51.58 955.57,115 C950.02,115.95 944.32,117.09 938.61,118.34" fill="none" id="BaseTraj-backto-LemniscateTraj" style="stroke:#181818;stroke-width:1;"/><polygon fill="none" points="1923.66,32.89,1905.5247,27.3123,1905.8051,39.309,1923.66,32.89" style="stroke:#181818;stroke-width:1;"/></g><!--reverse link LemniscateTraj to LemniscateTrajOmni--><g class="link" data-entity-1="LemniscateTraj" data-entity-2="LemniscateTrajOmni" data-uid="lnk12" id="link_LemniscateTraj_LemniscateTrajOmni"><path d="M887.5593,179.4825 C896.0593,197.1625 899.9,205.13 908.4,222.79" fill="none" id="LemniscateTraj-backto-LemniscateTrajOmni" style="stroke:#181818;stroke-width:1;"/><polygon fill="none" points="879.76,163.26,882.1518,182.0823,892.9668,176.8828,879.76,163.26" style="stroke:#181818;stroke-width:1;"/></g><!--reverse link BaseTraj to SetPointTraj--><g class="link" data-entity-1="BaseTraj" data-entity-2="SetPointTraj" data-uid="lnk14" id="link_BaseTraj_SetPointTraj"><path d="M1905.7992,33.8266 C1775.3792,38.0066 1415.09,54.3 1107.57,115 C1101.89,116.12 1096.03,117.49 1090.19,119" fill="none" id="BaseTraj-backto-SetPointTraj" style="stroke:#181818;stroke-width:1;"/><polygon fill="none" points="1923.79,33.25,1905.607,27.8297,1905.9914,39.8235,1923.79,33.25" style="stroke:#181818;stroke-width:1;"/></g><!--reverse link BaseTraj to PitchRotationTraj--><g class="link" data-entity-1="BaseTraj" data-entity-2="PitchRotationTraj" data-uid="lnk16" id="link_BaseTraj_PitchRotationTraj"><path d="M1905.6961,37.4007 C1795.4661,46.8707 1529.59,72.14 1295.57,115 C1289.87,116.04 1283.99,117.22 1278.1,118.49" fill="none" id="BaseTraj-backto-PitchRotationTraj" style="stroke:#181818;stroke-width:1;"/><polygon fill="none" points="1923.63,35.86,1905.1825,31.4227,1906.2096,43.3787,1923.63,35.86" style="stroke:#181818;stroke-width:1;"/></g><!--reverse link BaseTraj to PitchRotationFullTraj--><g class="link" data-entity-1="BaseTraj" data-entity-2="PitchRotationFullTraj" data-uid="lnk18" id="link_BaseTraj_PitchRotationFullTraj"><path d="M1906.0499,42.7991 C1822.3799,56.8891 1659.37,84.93 1507.57,115 C1502.03,116.1 1496.33,117.25 1490.59,118.44" fill="none" id="BaseTraj-backto-PitchRotationFullTraj" style="stroke:#181818;stroke-width:1;"/><polygon fill="none" points="1923.8,39.81,1905.0536,36.8824,1907.0463,48.7158,1923.8,39.81" style="stroke:#181818;stroke-width:1;"/></g><!--reverse link BaseTrajwFixedRotor to PitchContinuousRotationTraj--><g class="link" data-entity-1="BaseTrajwFixedRotor" data-entity-2="PitchContinuousRotationTraj" data-uid="lnk20" id="link_BaseTrajwFixedRotor_PitchContinuousRotationTraj"><path d="M515.8721,179.1756 C506.5321,196.8556 502.16,205.13 492.83,222.79" fill="none" id="BaseTrajwFixedRotor-backto-PitchContinuousRotationTraj" style="stroke:#181818;stroke-width:1;"/><polygon fill="none" points="524.28,163.26,510.5669,176.373,521.1773,181.9783,524.28,163.26" style="stroke:#181818;stroke-width:1;"/></g><!--reverse link PitchRotationTraj to PitchRotationTrajOpposite--><g class="link" data-entity-1="PitchRotationTraj" data-entity-2="PitchRotationTrajOpposite" data-uid="lnk22" id="link_PitchRotationTraj_PitchRotationTrajOpposite"><path d="M1201.57,181.26 C1201.57,198.94 1201.57,205.13 1201.57,222.79" fill="none" id="PitchRotationTraj-backto-PitchRotationTrajOpposite" style="stroke:#181818;stroke-width:1;"/><polygon fill="none" points="1201.57,163.26,1195.57,181.26,1207.57,181.26,1201.57,163.26" style="stroke:#181818;stroke-width:1;"/></g><!--reverse link BaseTraj to Continuous45DegRotationTraj--><g class="link" data-entity-1="BaseTraj" data-entity-2="Continuous45DegRotationTraj" data-uid="lnk24" id="link_BaseTraj_Continuous45DegRotationTraj"><path d="M1906.6922,52.8968 C1852.8022,70.5268 1780.76,94.1 1718.13,114.59" fill="none" id="BaseTraj-backto-Continuous45DegRotationTraj" style="stroke:#181818;stroke-width:1;"/><polygon fill="none" points="1923.8,47.3,1904.8266,47.1942,1908.5578,58.5994,1923.8,47.3" style="stroke:#181818;stroke-width:1;"/></g><!--reverse link BaseTraj to RollRotationTraj--><g class="link" data-entity-1="BaseTraj" data-entity-2="RollRotationTraj" data-uid="lnk26" id="link_BaseTraj_RollRotationTraj"><path d="M1937.7088,68.6664 C1921.8688,86.3464 1912.19,97.13 1896.37,114.79" fill="none" id="BaseTraj-backto-RollRotationTraj" style="stroke:#181818;stroke-width:1;"/><polygon fill="none" points="1949.72,55.26,1933.24,64.6627,1942.1776,72.6701,1949.72,55.26" style="stroke:#181818;stroke-width:1;"/></g><!--reverse link BaseTraj to RollRotationFullTraj--><g class="link" data-entity-1="BaseTraj" data-entity-2="RollRotationFullTraj" data-uid="lnk28" id="link_BaseTraj_RollRotationFullTraj"><path d="M2003.718,68.6062 C2019.718,86.2862 2029.56,97.13 2045.55,114.79" fill="none" id="BaseTraj-backto-RollRotationFullTraj" style="stroke:#181818;stroke-width:1;"/><polygon fill="none" points="1991.64,55.26,1999.2693,72.6322,2008.1668,64.5802,1991.64,55.26" style="stroke:#181818;stroke-width:1;"/></g><!--reverse link RollRotationTraj to RollRotationTrajOpposite--><g class="link" data-entity-1="RollRotationTraj" data-entity-2="RollRotationTrajOpposite" data-uid="lnk30" id="link_RollRotationTraj_RollRotationTrajOpposite"><path d="M1875.57,181.26 C1875.57,198.94 1875.57,205.13 1875.57,222.79" fill="none" id="RollRotationTraj-backto-RollRotationTrajOpposite" style="stroke:#181818;stroke-width:1;"/><polygon fill="none" points="1875.57,163.26,1869.57,181.26,1881.57,181.26,1875.57,163.26" style="stroke:#181818;stroke-width:1;"/></g><!--reverse link BaseTraj to RollRotationYaw045dTraj--><g class="link" data-entity-1="BaseTraj" data-entity-2="RollRotationYaw045dTraj" data-uid="lnk32" id="link_BaseTraj_RollRotationYaw045dTraj"><path d="M2034.3721,53.2047 C2087.5021,70.8547 2157.73,94.19 2219.13,114.59" fill="none" id="BaseTraj-backto-RollRotationYaw045dTraj" style="stroke:#181818;stroke-width:1;"/><polygon fill="none" points="2017.29,47.53,2032.4805,58.8988,2036.2637,47.5107,2017.29,47.53" style="stroke:#181818;stroke-width:1;"/></g><!--reverse link BaseTraj to PitchSetPtTraj--><g class="link" data-entity-1="BaseTraj" data-entity-2="PitchSetPtTraj" data-uid="lnk34" id="link_BaseTraj_PitchSetPtTraj"><path d="M2034.9671,42.286 C2115.7371,55.406 2268.95,81.65 2411.57,115 C2417.04,116.28 2422.69,117.69 2428.35,119.15" fill="none" id="BaseTraj-backto-PitchSetPtTraj" style="stroke:#181818;stroke-width:1;"/><polygon fill="none" points="2017.2,39.4,2034.0051,48.2084,2035.9291,36.3637,2017.2,39.4" style="stroke:#181818;stroke-width:1;"/></g><!--reverse link BaseTraj to YawRotationRoll090dTraj--><g class="link" data-entity-1="BaseTraj" data-entity-2="YawRotationRoll090dTraj" data-uid="lnk36" id="link_BaseTraj_YawRotationRoll090dTraj"><path d="M2035.3198,39.7412 C2137.2698,52.0712 2368.8,81.05 2576.57,115 C2581.95,115.88 2587.46,116.81 2593.02,117.78" fill="none" id="BaseTraj-backto-YawRotationRoll090dTraj" style="stroke:#181818;stroke-width:1;"/><polygon fill="none" points="2017.45,37.58,2034.5994,45.6978,2036.0402,33.7846,2017.45,37.58" style="stroke:#181818;stroke-width:1;"/></g><!--reverse link BaseTraj to YawRotationRoll045dTraj--><g class="link" data-entity-1="BaseTraj" data-entity-2="YawRotationRoll045dTraj" data-uid="lnk38" id="link_BaseTraj_YawRotationRoll045dTraj"><path d="M2035.1781,36.2978 C2163.5981,45.0778 2515.02,71.26 2819.57,115 C2824.97,115.78 2830.49,116.62 2836.06,117.52" fill="none" id="BaseTraj-backto-YawRotationRoll045dTraj" style="stroke:#181818;stroke-width:1;"/><polygon fill="none" points="2017.22,35.07,2034.7688,42.2838,2035.5873,30.3118,2017.22,35.07" style="stroke:#181818;stroke-width:1;"/></g><!--reverse link BaseTraj to YawRotationRoll135dTraj--><g class="link" data-entity-1="BaseTraj" data-entity-2="YawRotationRoll135dTraj" data-uid="lnk40" id="link_BaseTraj_YawRotationRoll135dTraj"><path d="M2035.3166,34.3744 C2186.8466,40.2244 2659.93,61.6 3062.57,115 C3067.97,115.72 3073.5,116.52 3079.08,117.38" fill="none" id="BaseTraj-backto-YawRotationRoll135dTraj" style="stroke:#181818;stroke-width:1;"/><polygon fill="none" points="2017.33,33.68,2035.0851,40.3699,2035.5481,28.3789,2017.33,33.68" style="stroke:#181818;stroke-width:1;"/></g><!--reverse link BaseTraj to SingularityPointTraj--><g class="link" data-entity-1="BaseTraj" data-entity-2="SingularityPointTraj" data-uid="lnk42" id="link_BaseTraj_SingularityPointTraj"><path d="M2035.2494,32.3511 C2207.4094,33.7011 2804.71,43.43 3305.57,115 C3311.14,115.8 3316.86,116.74 3322.6,117.77" fill="none" id="BaseTraj-backto-SingularityPointTraj" style="stroke:#181818;stroke-width:1;"/><polygon fill="none" points="2017.25,32.21,2035.2024,38.351,2035.2965,26.3513,2017.25,32.21" style="stroke:#181818;stroke-width:1;"/></g><!--reverse link BaseTrajwFixedRotor to TestFixedRotorTraj--><g class="link" data-entity-1="BaseTrajwFixedRotor" data-entity-2="TestFixedRotorTraj" data-uid="lnk44" id="link_BaseTrajwFixedRotor_TestFixedRotorTraj"><path d="M590.8532,172.507 C620.2632,190.117 645.05,204.97 674.51,222.61" fill="none" id="BaseTrajwFixedRotor-backto-TestFixedRotorTraj" style="stroke:#181818;stroke-width:1;"/><polygon fill="none" points="575.41,163.26,587.7709,177.6548,593.9355,167.3593,575.41,163.26" style="stroke:#181818;stroke-width:1;"/></g><!--reverse link BaseTrajwSound to HappyBirthdayFixedRotorTraj--><g class="link" data-entity-1="BaseTrajwSound" data-entity-2="HappyBirthdayFixedRotorTraj" data-uid="lnk46" id="link_BaseTrajwSound_HappyBirthdayFixedRotorTraj"><path d="M213.3544,282.6896 C191.8444,300.3696 176.3,313.13 154.81,330.79" fill="none" id="BaseTrajwSound-backto-HappyBirthdayFixedRotorTraj" style="stroke:#181818;stroke-width:1;"/><polygon fill="none" points="227.26,271.26,209.5446,278.0544,217.1643,287.3248,227.26,271.26" style="stroke:#181818;stroke-width:1;"/></g><!--reverse link BaseTrajwSound to TestThrustFrequencyTraj--><g class="link" data-entity-1="BaseTrajwSound" data-entity-2="TestThrustFrequencyTraj" data-uid="lnk48" id="link_BaseTrajwSound_TestThrustFrequencyTraj"><path d="M297.7856,282.6896 C319.2956,300.3696 334.83,313.13 356.32,330.79" fill="none" id="BaseTrajwSound-backto-TestThrustFrequencyTraj" style="stroke:#181818;stroke-width:1;"/><polygon fill="none" points="283.88,271.26,293.9757,287.3248,301.5954,278.0544,283.88,271.26" style="stroke:#181818;stroke-width:1;"/></g><!--reverse link BaseTraj to InfinitePitchNeg90deg--><g class="link" data-entity-1="BaseTraj" data-entity-2="InfinitePitchNeg90deg" data-uid="lnk50" id="link_BaseTraj_InfinitePitchNeg90deg"><path d="M2035.39,31.9983 C2223.53,32.3983 2924.47,39.04 3509.57,115 C3515.13,115.72 3520.83,116.57 3526.57,117.5" fill="none" id="BaseTraj-backto-InfinitePitchNeg90deg" style="stroke:#181818;stroke-width:1;"/><polygon fill="none" points="2017.39,31.96,2035.3772,37.9983,2035.4027,25.9983,2017.39,31.96" style="stroke:#181818;stroke-width:1;"/></g><!--SRC=[rPV1JiCm343l_OhU027O471WnmrD84riOhjmDAtfZD8a90um47mxAR0nrZ5sT7kBqwPFhuxZxaoPhU-qMbQ1vb2gmyoKhKo1zmSvGU6WJ1AFd6eeqLl8S8mM7B1nQQUJ973hsK76wUSZQHSyJXpSfw_9JXgl_RHdD3kZgedTlNdmVMsKD361efUbMB0vyD8uleeUVqKSHhmuVFiJvgbFpvXVcuePdnbrlWvqP3mEI2EuRpY5Rebuy_Gsw5k0ZatGUOrncLy2RezSfhxiYTGvm5AJp-BTJM4Sni62SmLV0kqOUMH8iroV8-9i6hS8C1dT4Cn-K4euQhKiwM22t-XMMeMgPSFGMkE9SK5UpnSHbNMX- -Jq70lv-NmTLsiMfUnDj-gpbhSruTAeR-2fVNAQ2wzhrO4c-3IB4kS-AxVjitRU75ZHNty5zkXOCkoOT14KEEAPyFPhWfv_Ue16z0WNOEsiIuwdESp-O__wCPDYUZ9r8Vfs-11GPpFfo9Vwhbe0Foll5HQncc4X8ey_0000]--></g></svg>